<svg id="Layer_1" xmlns="http://www.w3.org/2000/svg" viewBox="0 0 32 32"><style>.st0{fill:#00b1d6}</style><path class="st0" d="M29.1 12.5h-3.3L24 7.3c-.6-2-2.5-3.3-4.6-3.3h-6.8c-2.1 0-4 1.3-4.6 3.3l-1.8 5.2H2.9c-1.6 0-2.9 1.3-2.9 2.9v5.7C0 22.7 1.3 24 2.9 24H4c.1 1 .6 2 1.3 2.8.8.8 1.9 1.2 3 1.2h.1c2.1-.1 4.3-1.7 4.5-4H19c.1 1.1.6 2.1 1.5 2.9.8.7 1.9 1.1 3 1.1h.4c1.2-.1 2.2-.7 3-1.5.6-.7.9-1.6 1-2.5h1.2c1.6 0 2.9-1.3 2.9-2.9v-5.7c0-1.6-1.3-2.9-2.9-2.9zM8.4 26c-.6 0-1.2-.2-1.7-.7-.4-.4-.7-1.1-.7-1.8C6 22.1 7.1 21 8.4 21s2.6 1.3 2.6 2.6S9.6 26 8.4 26zm16.9-.8c-.3.5-.9.8-1.5.8-.7.1-1.4-.2-1.9-.6-1-.9-1.2-2.5-.3-3.5.4-.5 1.1-.8 1.8-.8h.2c.6 0 1.3.2 1.7.6.9.8.8 2.5 0 3.5zm4.7-4.1c0 .5-.4.9-.9.9h-1.4c-.2-.7-.6-1.3-1.2-1.8-.9-.8-2.1-1.2-3.3-1.1-1.2.1-2.4.6-3.1 1.5-.4.4-.6.9-.8 1.4h-6.6c-.7-1.7-2.3-3-4.2-3s-3.6 1.3-4.2 3H2.9c-.5 0-.9-.4-.9-.9v-5.7c0-.5.4-.9.9-.9h4c.4 0 .8-.3.9-.7l2-5.9c.5-1.1 1.6-1.9 2.8-1.9h6.8c1.2 0 2.3.8 2.7 1.9l2 5.9c.1.4.5.7.9.7h4c.5 0 .9.4.9.9l.1 5.7z"/><path class="st0" d="M21.3 12.6c-.1 0-2.7-.8-5.6.1-2.3.7-4.4 0-4.4 0-.5-.2-1.1.1-1.3.6s.1 1.1.6 1.3c.1 0 1.2.4 2.8.4.8 0 1.8-.1 2.8-.4 2.3-.7 4.4-.1 4.4-.1.5.2 1.1-.1 1.3-.7.2-.5-.1-1.1-.6-1.2z"/></svg>