<svg id="Layer_1" xmlns="http://www.w3.org/2000/svg" viewBox="0 0 35 35"><style>.st0{fill:#fff}</style><path class="st0" d="M10.2 31c-.6 0-1.1-.2-1.6-.5-.9-.7-1.3-1.8-.9-2.9l2.1-6.2c.1-.2 0-.3-.1-.4l-5.4-3.8c-.9-.6-1.3-1.7-1.2-2.6.2-1.3 1.3-2.2 2.6-2.2h6.8c.2 0 .3-.1.4-.3L15 5.8c.4-1.1 1.4-1.8 2.5-1.8s2.1.7 2.5 1.8l2.2 6.3c.1.2.2.3.4.3h6.8c1.3 0 2.4.9 2.6 2.2.2 1-.3 2-1.2 2.6L25.4 21c-.1.1-.2.3-.1.4l2.1 6.2c.4 1.1 0 2.2-.9 2.9-.9.7-2.2.7-3.1 0l-5.6-3.9c-.1-.1-.3-.1-.5 0l-5.6 3.9c-.5.3-1 .5-1.5.5zM5.6 14.3c-.3 0-.6.2-.6.5 0 .2.1.5.3.6l5.4 3.8c.9.6 1.2 1.7.9 2.7l-2.1 6.2c-.1.3 0 .5.2.7.2.2.5.2.8 0l5.6-3.9c.8-.6 1.9-.6 2.7 0l5.6 3.9c.2.2.5.2.8 0 .2-.2.3-.4.2-.7l-2-6.1c-.3-1 0-2.1.9-2.7l5.4-3.8c.2-.2.4-.4.3-.6-.1-.3-.3-.5-.6-.5h-6.8c-1 0-1.9-.6-2.3-1.6l-2.2-6.3c-.2-.5-1.1-.5-1.2 0l-2.2 6.3c-.3 1-1.2 1.6-2.3 1.6H5.6z"/></svg>