<?xml version="1.0" standalone="no"?>
<!DOCTYPE svg PUBLIC "-//W3C//DTD SVG 20010904//EN"
 "http://www.w3.org/TR/2001/REC-SVG-20010904/DTD/svg10.dtd">
<svg version="1.0" xmlns="http://www.w3.org/2000/svg"
 width="300.000000pt" height="300.000000pt" viewBox="0 0 300.000000 300.000000"
 preserveAspectRatio="xMidYMid meet">
<metadata>
Created by potrace 1.15, written by Peter Selinger 2001-2017
</metadata>
<g transform="translate(0.000000,300.000000) scale(0.100000,-0.100000)"
fill="#000000" stroke="none">
<path d="M1205 2980 c-612 -124 -1076 -596 -1189 -1209 -22 -114 -22 -428 0
-542 115 -621 592 -1098 1213 -1213 114 -22 428 -22 542 0 621 115 1098 592
1213 1213 22 114 22 428 0 542 -115 621 -592 1098 -1213 1213 -121 23 -445 21
-566 -4z m480 -796 c13 -8 28 -29 34 -46 7 -21 11 -206 11 -550 0 -579 0 -576
-64 -603 -29 -12 -103 -15 -405 -15 l-369 0 -7 33 c-26 116 -117 191 -235 192
-54 0 -73 -5 -113 -28 -58 -34 -100 -90 -116 -153 -12 -45 -13 -46 -44 -40
-18 3 -44 20 -60 36 l-27 30 0 551 0 551 29 29 29 29 657 0 c578 0 659 -2 680
-16z m641 -215 c10 -12 47 -100 80 -198 l62 -176 132 -5 c129 -5 132 -6 156
-33 24 -28 24 -29 24 -272 0 -164 -4 -252 -12 -270 -15 -34 -64 -47 -168 -43
l-85 3 -6 46 c-14 95 -78 169 -168 196 -139 40 -279 -51 -299 -194 l-7 -48
-104 0 c-100 0 -103 1 -127 28 l-24 28 0 455 0 455 25 24 24 25 239 0 c230 0
240 -1 258 -21z m34 -841 c57 -39 75 -72 75 -138 0 -44 -5 -66 -21 -87 -74
-99 -204 -99 -278 0 -16 21 -21 43 -21 87 0 66 18 99 75 138 24 16 47 22 85
22 38 0 61 -6 85 -22z m-1620 -31 c135 -90 75 -297 -85 -297 -119 0 -203 128
-151 228 16 30 63 77 86 85 40 14 118 6 150 -16z"/>
<path d="M1970 1913 c-34 -12 -40 -36 -40 -163 0 -93 4 -131 14 -146 13 -17
30 -19 206 -22 267 -4 266 -5 206 192 -45 149 -41 146 -225 145 -80 0 -153 -3
-161 -6z"/>
</g>
</svg>
